<?xml version="1.0" standalone="no"?>
<!DOCTYPE svg PUBLIC "-//W3C//DTD SVG 20010904//EN"
 "http://www.w3.org/TR/2001/REC-SVG-20010904/DTD/svg10.dtd">
<svg version="1.0" xmlns="http://www.w3.org/2000/svg"
 width="600.000000pt" height="600.000000pt" viewBox="0 0 600.000000 600.000000"
 preserveAspectRatio="xMidYMid meet">
<g transform="translate(0.000000,600.000000) scale(0.100000,-0.100000)"
fill="#000000" stroke="none">
<path d="M2368 4858 c-79 -68 -198 -170 -266 -227 l-122 -103 0 -647 0 -646
708 -451 707 -450 3 -247 c1 -136 0 -247 -4 -247 -3 0 -83 53 -178 117 -94 64
-241 164 -326 222 -85 57 -193 131 -239 163 l-84 58 -1 101 -1 101 -93 54
c-52 30 -97 54 -100 54 -4 0 -6 -95 -5 -212 2 -158 5 -215 15 -223 7 -7 253
-175 546 -374 l532 -361 85 72 84 73 1 418 c0 229 1 420 3 423 2 6 -538 341
-1281 796 l-183 113 1 470 1 471 174 157 174 157 323 -206 c178 -113 445 -284
595 -379 l272 -174 598 0 598 -1 86 113 86 112 -666 -2 -666 -3 -130 90 c-71
49 -193 132 -270 184 -77 52 -292 198 -478 325 -186 127 -342 231 -347 231 -5
0 -73 -55 -152 -122z m150 74 c-10 -14 -8 -13 8 1 21 17 22 17 29 0 5 -10 8
-21 7 -24 -1 -4 8 -4 20 -1 16 4 29 -3 51 -29 16 -19 26 -27 22 -19 -4 8 9 -2
29 -22 35 -36 54 -50 41 -28 -3 6 -4 10 -2 10 6 0 78 -56 106 -82 13 -13 21
-17 17 -11 -13 24 22 2 44 -27 12 -16 28 -26 35 -23 8 2 28 -9 44 -26 17 -18
31 -29 31 -26 0 9 68 -33 117 -73 24 -19 40 -39 36 -46 -4 -8 -3 -8 7 1 13 12
27 4 73 -42 11 -11 16 -14 12 -6 -4 7 24 -9 63 -35 39 -27 69 -54 67 -61 -2
-6 2 -14 10 -17 10 -3 12 0 8 12 -4 13 -2 12 10 -3 11 -15 12 -22 4 -28 -8 -6
-6 -7 6 -3 16 5 65 -11 77 -25 3 -3 13 -9 24 -12 12 -5 16 -13 12 -24 -4 -10
-4 -14 0 -10 4 4 14 1 23 -6 14 -11 15 -10 1 8 -9 11 1 7 21 -10 20 -17 34
-33 33 -36 -2 -4 3 -10 12 -13 8 -3 12 -2 9 4 -3 5 1 7 9 4 8 -3 18 -14 21
-25 4 -10 12 -18 18 -16 7 1 11 -4 9 -12 -2 -9 3 -11 14 -7 10 4 21 1 25 -6 7
-10 138 -13 648 -13 635 0 640 0 637 -20 -2 -11 -9 -19 -15 -18 -6 2 -8 -5 -4
-15 3 -9 3 -14 -2 -10 -4 4 -21 -13 -37 -37 -17 -25 -34 -45 -40 -45 -5 0 -6
-6 -2 -12 5 -8 0 -7 -11 2 -10 8 -16 11 -13 5 4 -7 -184 -10 -558 -9 -541 1
-565 1 -586 20 -12 10 -18 13 -14 7 9 -16 -6 -17 -21 -2 -8 8 -13 7 -18 -2 -6
-8 -4 -10 5 -4 9 5 11 4 6 -3 -7 -11 -41 1 -56 19 -3 3 -15 12 -28 18 -16 9
-22 18 -17 29 5 14 4 15 -6 5 -18 -18 -34 -16 -19 2 11 13 10 14 -5 9 -14 -6
-16 -4 -10 7 7 11 6 12 -6 2 -11 -9 -19 -7 -38 13 -13 13 -28 21 -34 17 -6 -3
-7 -1 -3 5 4 7 1 12 -6 12 -8 0 -23 7 -34 16 -18 14 -18 15 5 4 13 -7 27 -8
32 -3 5 5 1 9 -9 10 -37 4 -58 10 -87 24 -37 18 -65 45 -57 55 4 4 1 4 -5 0
-14 -8 -57 17 -47 26 3 3 0 9 -7 14 -8 4 -10 3 -5 -4 10 -16 -5 -15 -26 2 -10
7 -15 16 -11 19 6 7 -21 11 -41 8 -5 -1 -3 5 4 14 11 13 10 15 -3 9 -10 -3
-35 7 -62 25 -25 17 -51 31 -58 31 -8 0 -7 4 2 13 10 10 15 8 27 -7 8 -11 14
-15 14 -9 0 18 -25 32 -47 27 -14 -4 -28 2 -43 18 -13 12 -19 17 -15 10 6 -11
3 -12 -14 -2 -12 6 -19 15 -16 20 3 5 0 12 -6 16 -8 4 -9 3 -5 -4 11 -18 -10
-14 -25 5 -8 10 -9 14 -2 10 6 -4 14 -3 18 2 3 6 -4 8 -16 6 -24 -5 -63 18
-51 29 4 4 2 7 -3 6 -18 -4 -30 0 -55 20 -14 11 -18 18 -9 14 10 -3 19 -1 23
4 6 10 -24 9 -41 -1 -6 -4 -13 -4 -15 1 -5 11 -106 82 -118 82 -5 0 -14 9 -20
20 -6 11 -16 20 -22 20 -6 0 -5 -7 3 -17 13 -17 13 -17 -6 -3 -38 28 -46 40
-39 52 6 9 3 9 -9 -1 -9 -7 -17 -9 -17 -3 0 18 -50 9 -72 -13 -12 -13 -29 -20
-37 -17 -10 4 -13 1 -8 -10 3 -10 0 -19 -9 -22 -10 -4 -12 -2 -8 6 5 7 3 8 -5
4 -7 -5 -10 -14 -7 -21 5 -13 -21 -43 -39 -44 -5 -1 -29 -19 -52 -41 -24 -22
-45 -40 -47 -40 -7 0 -1 23 9 40 8 13 6 13 -8 2 -9 -8 -16 -17 -15 -20 0 -4
-1 -10 -2 -14 -1 -5 -3 -14 -4 -20 -1 -7 -8 -12 -15 -10 -7 1 -10 -2 -6 -8 3
-6 -13 -29 -37 -52 l-43 -41 0 -466 c0 -362 3 -471 13 -489 7 -12 17 -20 21
-17 9 5 26 -23 22 -38 -1 -4 8 -3 20 4 15 8 19 8 15 0 -7 -10 6 -16 27 -12 5
1 5 -4 1 -10 -5 -9 -2 -10 10 -6 13 5 17 3 13 -7 -4 -11 -1 -13 10 -9 11 4 14
2 9 -5 -4 -7 -1 -12 8 -12 9 0 16 -4 16 -10 0 -5 8 -7 18 -3 9 3 14 3 10 -2
-6 -6 21 -23 109 -69 13 -6 23 -17 23 -24 0 -7 4 -11 9 -7 8 4 50 -18 96 -52
6 -5 17 -9 24 -11 8 -2 23 -14 33 -27 11 -14 24 -25 30 -25 6 0 0 9 -13 21
-19 16 -20 18 -4 10 11 -6 31 -20 45 -32 14 -11 18 -17 10 -13 -9 4 -12 3 -7
-2 5 -5 12 -9 15 -9 11 0 102 -46 102 -51 0 -3 -6 -2 -12 2 -9 5 -10 4 -3 -4
6 -6 20 -13 32 -15 13 -2 26 -7 30 -12 5 -4 2 -5 -6 0 -9 5 -12 4 -7 -3 4 -7
14 -12 22 -12 8 0 14 -5 14 -10 0 -6 6 -10 13 -9 20 3 47 -12 40 -24 -4 -6 0
-8 10 -4 10 4 20 0 26 -11 6 -9 11 -13 11 -9 0 5 14 -3 31 -17 17 -14 41 -29
55 -32 22 -6 29 -16 25 -38 -1 -5 5 -4 13 4 9 7 16 8 16 2 0 -5 14 -15 30 -22
17 -7 30 -16 30 -19 0 -4 16 -14 35 -21 20 -8 41 -20 47 -27 5 -7 15 -10 21
-6 6 4 7 1 2 -7 -5 -8 -3 -11 6 -8 7 2 20 -1 29 -9 8 -7 24 -20 35 -29 11 -8
14 -12 6 -8 -9 5 -12 3 -7 -5 4 -6 11 -9 15 -6 5 2 26 -4 47 -15 22 -10 33
-19 26 -20 -7 0 -10 -5 -7 -10 4 -6 10 -8 15 -5 5 3 11 1 15 -5 4 -6 11 -7 17
-4 7 5 8 2 3 -6 -6 -10 -4 -12 8 -7 10 3 17 2 17 -3 0 -6 6 -10 13 -10 6 -1
23 -10 37 -21 l25 -21 2 -412 2 -411 -74 -60 c-40 -33 -71 -64 -67 -70 3 -5
-6 0 -20 13 -13 12 -28 19 -31 15 -4 -3 -7 5 -7 18 0 19 -2 21 -10 9 -7 -11
-12 -12 -18 -3 -4 6 -20 16 -35 22 -15 6 -27 16 -27 23 0 10 2 10 9 0 6 -10
10 -10 20 1 9 12 6 14 -18 11 -23 -3 -34 3 -56 31 -14 19 -31 35 -37 35 -5 0
0 -9 13 -21 18 -15 14 -14 -17 5 -23 14 -45 22 -50 18 -4 -4 -4 -1 0 5 4 7 3
13 -2 13 -5 0 -14 10 -21 23 -6 12 -9 14 -7 5 7 -24 0 -23 -27 5 -12 12 -18
19 -13 15 6 -5 14 -8 20 -8 5 0 1 6 -9 14 -11 8 -25 12 -32 9 -6 -3 -18 0 -25
6 -7 6 -25 21 -41 32 -15 11 -26 28 -25 37 2 12 -5 17 -24 17 -15 1 -24 -4
-22 -10 3 -5 0 -3 -8 5 -7 8 -25 21 -40 29 -15 8 -25 18 -22 23 3 4 0 8 -7 8
-6 0 -18 8 -26 18 -8 10 -11 11 -7 2 4 -8 -14 3 -41 25 -27 22 -46 33 -41 25
6 -11 4 -11 -6 1 -7 8 -39 32 -71 52 -32 21 -55 42 -52 47 3 6 -1 7 -9 4 -10
-4 -16 -1 -16 7 0 7 -3 9 -6 6 -4 -4 -24 7 -45 24 -22 17 -39 27 -39 23 0 -4
-9 2 -21 14 -11 12 -24 20 -29 17 -6 -4 -7 2 -3 11 5 13 3 15 -7 9 -10 -6 -12
-4 -7 8 3 8 -1 21 -8 27 -8 7 -12 16 -9 21 3 5 0 9 -5 9 -16 0 -14 -11 6 -32
16 -17 15 -18 -7 -15 -13 2 -26 12 -29 23 -3 10 -6 96 -8 191 -2 141 0 172 12
177 8 3 17 0 21 -6 5 -7 2 -8 -6 -3 -9 5 -11 4 -6 -4 4 -6 11 -9 16 -6 12 8
105 -50 102 -64 -1 -6 1 -11 5 -11 5 0 7 -39 5 -86 -3 -67 0 -89 12 -103 9
-10 13 -21 9 -25 -4 -4 1 -4 10 0 12 4 25 0 37 -12 29 -29 54 -49 57 -46 8 7
22 -1 51 -27 17 -17 32 -27 32 -25 0 3 18 -8 39 -25 21 -17 42 -31 46 -31 15
0 64 -48 57 -56 -4 -5 2 -2 12 6 13 10 17 10 12 3 -4 -8 -2 -13 6 -13 10 0 9
-3 -2 -11 -12 -9 -11 -10 7 -6 15 3 20 1 17 -8 -3 -7 0 -16 7 -21 8 -4 10 -3
5 4 -10 17 6 15 29 -3 11 -8 48 -33 83 -55 39 -25 60 -45 56 -52 -4 -7 -3 -8
4 -4 7 4 12 1 12 -6 0 -10 3 -9 11 2 9 12 10 11 6 -7 -3 -16 -1 -20 10 -16 7
3 21 -2 31 -10 9 -9 22 -16 27 -17 6 -1 22 -12 37 -25 14 -13 29 -21 32 -18 3
4 6 1 6 -6 0 -7 5 -9 10 -6 6 3 13 0 16 -8 5 -15 32 -27 67 -32 16 -2 21 9 20
43 -1 9 3 10 11 3 9 -8 12 -5 11 9 -1 11 -5 23 -10 27 -4 5 -5 2 0 -6 6 -10 4
-12 -4 -7 -8 5 -9 12 -2 20 11 14 20 436 8 429 -4 -2 -4 -10 -1 -16 5 -9 4 -9
-5 -1 -10 10 -10 17 0 35 12 24 12 24 -9 5 -21 -18 -21 -18 -18 1 3 12 -1 20
-9 20 -8 0 -11 -5 -8 -10 3 -6 -6 -2 -20 9 -15 10 -27 26 -27 34 0 12 -2 12
-9 1 -7 -10 -14 -9 -34 9 -15 13 -24 27 -21 31 3 5 -2 6 -11 3 -9 -4 -25 2
-39 15 -12 12 -26 18 -29 14 -4 -3 -7 1 -7 11 0 9 4 15 8 12 5 -3 9 1 9 9 0
13 -3 13 -17 0 -15 -14 -20 -14 -32 -2 -8 8 -25 18 -38 22 -23 7 -35 15 -70
47 -10 9 -22 13 -26 10 -4 -4 -4 2 0 12 6 17 5 17 -11 5 -15 -13 -16 -12 -9 6
5 15 4 17 -5 8 -9 -9 -16 -7 -32 8 -11 10 -27 19 -34 19 -9 0 -11 5 -6 13 12
19 12 36 1 44 -7 3 -8 1 -4 -5 4 -7 1 -12 -6 -12 -9 0 -9 -3 2 -10 11 -7 11
-10 2 -10 -21 0 -53 20 -47 30 3 4 -3 7 -12 6 -10 -2 -20 0 -23 3 -3 4 -22 17
-43 30 -26 16 -36 28 -32 39 4 11 2 12 -8 4 -15 -13 -31 -4 -40 21 -3 9 -11
17 -17 17 -6 0 -8 -4 -5 -10 9 -14 -7 -12 -28 4 -14 11 -15 15 -5 19 8 3 6 6
-5 6 -10 1 -16 5 -12 10 3 5 0 13 -6 17 -7 4 -9 3 -5 -4 3 -6 2 -13 -4 -17 -5
-3 -10 -2 -10 3 0 5 -16 17 -35 26 -19 9 -35 19 -35 22 0 3 5 2 12 -2 7 -4 8
-3 4 4 -4 7 -16 12 -28 12 -14 0 -18 5 -14 15 5 13 2 14 -15 4 -13 -7 -19 -7
-15 -1 3 6 -3 13 -14 17 -11 3 -20 14 -20 23 0 15 -2 15 -11 2 -8 -11 -12 -12
-16 -2 -2 6 -12 12 -20 12 -13 0 -13 3 -3 15 11 13 10 14 -5 9 -13 -5 -16 -4
-11 4 5 8 2 10 -8 6 -9 -4 -36 9 -66 31 -27 20 -50 33 -50 29 0 -4 -11 3 -25
16 -14 13 -25 20 -25 16 0 -7 -14 3 -51 37 -10 9 -25 16 -32 15 -6 -2 -11 5
-11 15 2 13 -1 15 -11 7 -8 -7 -17 -4 -30 10 -10 11 -24 20 -32 20 -9 0 -11 5
-6 13 13 21 12 36 -4 30 -12 -5 -12 -7 -1 -15 9 -7 8 -8 -7 -6 -20 3 -20 12
-23 626 -2 498 0 622 10 622 9 0 9 3 -1 9 -24 15 51 85 81 76 17 -5 19 -4 9 4
-12 8 -12 12 -2 25 8 9 19 16 27 16 7 0 18 9 24 20 6 11 14 19 18 18 4 -2 23
14 44 34 20 20 39 34 42 31 3 -4 6 -1 6 6 0 8 6 11 16 7 14 -5 15 -4 4 9 -7 8
-8 15 -3 15 6 0 22 11 37 25 14 13 26 22 26 21 0 -2 15 10 34 28 43 40 66 58
66 52 0 -2 17 13 38 33 36 37 66 46 40 13z m1226 -963 c3 -3 -6 -6 -19 -7 -14
-1 -25 2 -25 6 0 9 36 9 44 1z m-750 -2074 c-4 -8 -10 -12 -15 -9 -11 6 -2 24
11 24 5 0 7 -7 4 -15z"/>
<path d="M2465 4899 c-11 -16 -1 -19 13 -3 7 8 8 14 3 14 -5 0 -13 -5 -16 -11z"/>
<path d="M2381 4827 c-8 -10 -7 -14 2 -14 8 0 14 6 14 14 0 7 -1 13 -2 13 -2
0 -8 -6 -14 -13z"/>
<path d="M2677 4809 c7 -7 15 -10 18 -7 3 3 -2 9 -12 12 -14 6 -15 5 -6 -5z"/>
<path d="M2600 4700 c-8 -5 -10 -10 -5 -10 6 0 17 5 25 10 8 5 11 10 5 10 -5
0 -17 -5 -25 -10z"/>
<path d="M2385 4620 c6 -10 4 -12 -8 -7 -9 3 -18 3 -21 -1 -3 -4 4 -8 14 -9
23 -2 35 13 19 23 -8 5 -9 3 -4 -6z"/>
<path d="M2100 4596 c0 -2 7 -7 16 -10 8 -3 12 -2 9 4 -6 10 -25 14 -25 6z"/>
<path d="M3062 4574 c10 -10 20 -16 22 -13 3 3 -5 11 -17 18 -21 13 -21 12 -5
-5z"/>
<path d="M2046 4545 c-3 -8 -1 -15 4 -15 6 0 10 7 10 15 0 8 -2 15 -4 15 -2 0
-6 -7 -10 -15z"/>
<path d="M2027 4509 c7 -7 15 -10 18 -7 3 3 -2 9 -12 12 -14 6 -15 5 -6 -5z"/>
<path d="M3020 4431 c0 -6 4 -13 10 -16 6 -3 7 1 4 9 -7 18 -14 21 -14 7z"/>
<path d="M3255 4430 c-3 -6 1 -7 9 -4 18 7 21 14 7 14 -6 0 -13 -4 -16 -10z"/>
<path d="M2255 3320 c10 -11 20 -20 23 -20 3 0 -3 9 -13 20 -10 11 -20 20 -23
20 -3 0 3 -9 13 -20z"/>
<path d="M2401 3247 c2 -1 15 -11 29 -22 l25 -20 -19 23 c-11 12 -24 22 -29
22 -6 0 -8 -1 -6 -3z"/>
<path d="M2403 3215 c0 -8 4 -12 9 -9 5 3 6 10 3 15 -9 13 -12 11 -12 -6z"/>
<path d="M2560 3146 c0 -2 7 -7 16 -10 8 -3 12 -2 9 4 -6 10 -25 14 -25 6z"/>
<path d="M2299 3118 c0 -2 -2 -11 -4 -21 -3 -15 -1 -16 11 -6 7 6 11 15 8 20
-5 9 -13 12 -15 7z"/>
<path d="M2530 2956 c0 -2 8 -10 18 -17 15 -13 16 -12 3 4 -13 16 -21 21 -21
13z"/>
<path d="M2957 2889 c7 -7 15 -10 18 -7 3 3 -2 9 -12 12 -14 6 -15 5 -6 -5z"/>
<path d="M2775 2791 c-3 -5 -2 -12 3 -15 5 -3 9 1 9 9 0 17 -3 19 -12 6z"/>
<path d="M2505 2590 c3 -5 8 -10 11 -10 2 0 4 5 4 10 0 6 -5 10 -11 10 -5 0
-7 -4 -4 -10z"/>
<path d="M3160 2546 c7 -7 13 -7 20 0 6 6 3 10 -10 10 -13 0 -16 -4 -10 -10z"/>
<path d="M2575 2340 c-3 -6 1 -7 9 -4 18 7 21 14 7 14 -6 0 -13 -4 -16 -10z"/>
<path d="M2464 2306 c1 -8 5 -18 8 -22 4 -3 5 1 4 10 -1 8 -5 18 -8 22 -4 3
-5 -1 -4 -10z"/>
<path d="M2655 2280 c-3 -6 1 -7 9 -4 18 7 21 14 7 14 -6 0 -13 -4 -16 -10z"/>
<path d="M2645 2250 c-3 -6 1 -7 9 -4 18 7 21 14 7 14 -6 0 -13 -4 -16 -10z"/>
<path d="M2532 2224 c10 -10 20 -16 22 -13 3 3 -5 11 -17 18 -21 13 -21 12 -5
-5z"/>
<path d="M2800 2190 c0 -5 5 -10 11 -10 5 0 7 5 4 10 -3 6 -8 10 -11 10 -2 0
-4 -4 -4 -10z"/>
<path d="M2826 2172 c-3 -5 1 -9 9 -9 8 0 12 4 9 9 -3 4 -7 8 -9 8 -2 0 -6 -4
-9 -8z"/>
<path d="M3010 1886 c0 -2 8 -10 18 -17 15 -13 16 -12 3 4 -13 16 -21 21 -21
13z"/>
<path d="M3425 1839 c-4 -6 -5 -12 -2 -15 2 -3 7 2 10 11 7 17 1 20 -8 4z"/>
<path d="M3545 1660 c-4 -6 -11 -7 -17 -4 -7 4 -8 2 -4 -5 6 -9 11 -9 22 0 14
11 18 19 10 19 -3 0 -8 -5 -11 -10z"/>
<path d="M2406 4948 c3 -5 10 -6 15 -3 13 9 11 12 -6 12 -8 0 -12 -4 -9 -9z"/>
<path d="M2563 4595 c0 -8 4 -12 9 -9 5 3 6 10 3 15 -9 13 -12 11 -12 -6z"/>
<path d="M2468 4397 l-98 -69 0 -433 0 -434 113 -69 c98 -61 835 -513 1214
-746 l133 -81 0 -465 0 -465 -176 -155 c-97 -85 -180 -156 -184 -158 -4 -1
-253 166 -553 373 l-546 375 -646 0 -645 0 -78 -117 -79 -118 674 3 673 3 75
-51 c42 -28 80 -48 85 -45 6 4 9 1 8 -5 -2 -6 84 -71 189 -143 623 -427 774
-528 785 -521 6 4 8 3 4 -4 -4 -6 9 -22 30 -36 l37 -25 77 67 c43 37 155 135
250 217 94 83 182 159 196 170 l24 21 -2 639 -3 639 -580 368 c-319 202 -586
365 -593 363 -7 -3 -10 -1 -7 4 3 6 -51 45 -119 88 l-125 78 -3 243 c-2 177 0
241 8 238 6 -2 153 -100 325 -216 173 -117 356 -240 406 -274 l93 -61 0 -95 0
-96 63 -36 c34 -21 81 -49 104 -63 l42 -26 0 224 0 225 -405 278 c-222 154
-464 320 -537 370 l-132 90 -97 -69z m165 -1 c34 -24 70 -51 80 -60 9 -9 20
-16 25 -16 4 0 25 -12 47 -25 l39 -24 -24 -10 c-24 -10 -24 -10 5 -7 20 2 38
-5 55 -21 14 -13 31 -21 38 -18 7 3 10 0 7 -5 -3 -6 5 -14 19 -20 14 -5 26
-14 26 -20 0 -6 4 -9 9 -6 5 3 11 -1 15 -9 3 -9 12 -12 23 -9 13 4 14 3 5 -3
-10 -7 -7 -14 10 -29 18 -15 20 -15 9 -1 -16 20 1 24 18 4 7 -9 7 -17 1 -23
-6 -6 -2 -10 13 -11 12 0 16 1 9 4 -6 3 -10 8 -7 13 3 4 19 -5 35 -20 17 -16
40 -32 51 -35 10 -4 19 -11 19 -17 0 -6 -7 -5 -17 3 -16 12 -17 12 -6 -2 7 -9
11 -18 8 -21 -3 -2 2 -5 10 -5 8 0 12 4 9 9 -9 14 14 9 30 -8 9 -8 13 -20 10
-26 -4 -7 -2 -8 5 -4 6 4 9 12 6 17 -3 5 1 6 10 3 9 -4 14 -13 11 -21 -3 -8
-2 -12 3 -8 16 9 40 -6 36 -23 -2 -12 4 -17 20 -18 13 -1 37 -11 53 -23 16
-11 31 -18 34 -16 3 3 5 -2 5 -10 0 -8 -7 -15 -16 -16 -12 0 -11 -3 4 -9 11
-4 30 -6 43 -3 22 5 24 2 25 -44 0 -14 4 -20 14 -16 12 5 12 7 1 14 -11 7 -10
10 1 21 11 11 13 11 6 -1 -6 -11 -4 -13 9 -8 9 4 15 3 13 -1 -6 -9 19 -33 27
-25 3 4 6 1 6 -5 0 -7 5 -12 11 -12 17 0 89 -62 83 -72 -3 -5 -5 -88 -4 -184
0 -120 -3 -174 -10 -169 -5 3 -10 0 -11 -7 0 -10 -2 -10 -6 0 -2 6 -11 12 -19
12 -8 0 -14 3 -14 8 0 4 -14 15 -31 24 -17 10 -27 23 -23 29 4 8 0 8 -15 0
-12 -7 -21 -8 -20 -4 1 4 1 13 -1 18 -1 6 -1 44 0 86 1 58 -3 80 -15 93 -9 9
-13 21 -9 28 5 8 1 8 -12 -2 -10 -8 -16 -10 -12 -6 8 9 -78 69 -114 82 -10 4
-18 13 -18 20 0 8 8 14 18 15 9 0 12 3 5 5 -7 3 -21 0 -33 -6 -15 -8 -20 -8
-18 2 2 6 -2 12 -9 13 -7 0 -22 8 -33 18 -12 10 -26 15 -32 11 -6 -4 -8 -3 -5
3 4 6 -7 16 -23 23 -17 7 -30 16 -30 21 0 5 -3 8 -7 7 -5 -1 -43 23 -86 55
-43 33 -82 55 -89 51 -7 -4 -8 -3 -4 4 4 7 -8 18 -33 28 -23 9 -38 20 -35 25
3 5 -1 9 -9 9 -8 0 -25 11 -38 24 -13 13 -29 21 -38 18 -8 -3 -12 -1 -9 4 3 5
-18 25 -47 44 -30 19 -51 38 -49 42 3 4 -1 5 -9 2 -8 -3 -21 2 -30 10 -18 18
-43 21 -52 6 -4 -6 -11 -8 -16 -5 -5 4 -9 1 -9 -4 0 -6 5 -11 10 -11 7 0 7 -6
1 -18 -6 -12 -6 -23 0 -33 6 -8 7 -98 4 -225 l-6 -210 26 -12 c14 -7 24 -16
21 -21 -4 -5 5 -8 19 -6 22 2 23 0 13 -13 -9 -11 -10 -14 -1 -9 7 5 17 -1 23
-13 7 -14 17 -19 27 -16 18 7 46 -12 37 -25 -3 -5 3 -6 12 -2 13 5 15 3 9 -7
-5 -9 -4 -11 3 -6 19 11 52 -12 45 -32 -5 -14 -3 -13 11 3 10 11 15 15 12 9
-3 -6 13 -18 34 -28 22 -10 40 -21 40 -24 0 -4 16 -16 35 -26 19 -10 32 -23
29 -27 -3 -5 2 -6 11 -3 9 4 25 -2 36 -12 12 -10 33 -24 47 -32 15 -7 19 -10
9 -7 -10 3 -15 1 -12 -5 3 -6 14 -10 24 -10 10 0 30 -9 44 -20 14 -11 30 -20
36 -20 6 0 11 -4 11 -9 0 -5 14 -14 30 -20 17 -5 30 -14 30 -19 0 -6 11 -13
25 -16 14 -4 25 -11 25 -17 0 -6 4 -8 9 -5 4 3 16 -3 26 -14 10 -11 24 -20 30
-20 7 0 19 -8 26 -17 13 -17 13 -17 -6 -3 -19 14 -19 14 -6 -2 7 -10 17 -15
22 -12 5 3 22 -4 38 -15 15 -11 32 -17 36 -13 4 4 2 -3 -4 -16 -12 -23 -12
-23 11 -11 21 11 22 11 9 -5 -12 -14 -12 -16 3 -10 9 3 24 0 33 -7 14 -12 16
-12 8 1 -5 8 9 1 30 -16 55 -43 125 -86 125 -77 0 5 4 2 9 -6 5 -8 8 -23 6
-33 -3 -15 -1 -16 15 -8 25 13 33 13 24 -2 -4 -7 -3 -8 5 -4 6 4 18 0 27 -8 9
-9 20 -13 26 -10 6 4 8 3 5 -3 -3 -5 9 -17 28 -26 26 -12 33 -21 29 -34 -5
-15 -4 -16 6 -3 9 11 13 12 17 2 2 -6 9 -10 14 -6 5 3 22 -7 38 -22 16 -15 37
-29 47 -30 9 -2 22 -9 28 -16 13 -15 11 -1252 -2 -1244 -4 2 -9 -5 -9 -17 -2
-17 0 -18 7 -7 5 8 12 12 15 8 4 -4 -6 -15 -22 -25 -40 -25 -53 -39 -45 -48 4
-5 -1 -5 -10 -2 -10 3 -20 1 -24 -5 -5 -7 -2 -8 7 -3 12 8 12 6 0 -8 -8 -10
-21 -15 -31 -12 -10 3 -23 -2 -31 -12 -9 -11 -10 -14 -1 -9 19 11 14 -3 -9
-27 -12 -12 -19 -17 -15 -10 3 6 1 15 -5 19 -8 4 -9 3 -5 -5 5 -7 -7 -26 -31
-47 -21 -20 -37 -40 -35 -45 1 -5 -2 -8 -7 -7 -5 2 -29 -14 -54 -34 -35 -29
-47 -34 -57 -25 -10 9 -11 9 -6 0 9 -17 -53 -85 -72 -78 -12 4 -13 3 -2 -10
11 -13 10 -14 -3 -10 -8 4 -18 1 -23 -6 -5 -8 -3 -10 7 -4 8 4 1 -4 -16 -18
-27 -23 -32 -24 -56 -12 -34 18 -57 45 -38 45 11 0 11 2 -1 10 -8 5 -25 7 -37
3 -13 -3 -24 0 -24 6 -1 6 -3 16 -4 21 -1 6 -3 12 -4 15 0 3 -11 0 -23 -6 -20
-11 -21 -10 -11 3 11 12 8 17 -15 27 -25 10 -26 10 -8 -4 11 -8 17 -15 13 -15
-4 0 -30 18 -58 40 -28 22 -56 37 -62 33 -7 -4 -8 0 -4 11 5 12 3 16 -5 13 -7
-2 -32 11 -54 29 -23 18 -45 30 -50 26 -5 -4 -2 2 6 12 10 13 11 17 2 12 -7
-4 -20 0 -30 11 -9 10 -14 14 -9 9 15 -21 6 -28 -13 -11 -11 10 -20 25 -20 34
0 14 -2 14 -10 1 -8 -13 -14 -8 -12 11 1 4 -6 6 -16 5 -9 0 -16 5 -14 12 1 6
-1 11 -5 11 -21 -3 -33 2 -27 13 5 7 3 8 -6 3 -9 -5 -22 2 -39 21 -14 17 -22
24 -17 17 13 -20 2 -15 -30 12 -16 14 -35 25 -41 25 -7 0 -13 5 -13 10 0 6 -7
10 -15 10 -8 0 -20 9 -27 19 -6 10 -18 17 -25 14 -7 -3 -13 -2 -13 1 0 4 10
10 22 15 l22 8 -22 5 c-12 4 -20 2 -16 -3 10 -17 -16 -9 -46 13 -16 11 -27 25
-24 30 3 5 2 7 -3 6 -15 -5 -73 24 -67 34 3 5 0 8 -8 6 -8 -2 -32 12 -54 29
-23 18 -45 29 -49 25 -5 -4 -6 -2 -3 3 3 6 -18 26 -47 45 -30 19 -51 38 -49
42 3 4 -1 5 -9 3 -7 -3 -24 3 -37 15 -23 20 -34 20 -651 20 -587 0 -629 1
-639 18 -10 15 -10 15 -5 -3 4 -16 0 -21 -14 -21 -15 0 -17 4 -11 17 5 9 6 19
3 23 -4 3 4 17 17 31 13 14 20 25 17 25 -7 0 14 28 46 62 9 10 17 21 17 26 0
9 1258 8 1288 -2 12 -4 19 -12 16 -18 -4 -6 -2 -8 4 -4 5 3 24 -5 40 -19 16
-14 33 -25 37 -25 5 0 23 -11 41 -25 18 -14 37 -25 42 -25 5 0 16 -8 23 -17
13 -17 13 -17 -6 -3 -18 14 -19 13 -8 -1 7 -9 9 -19 5 -24 -4 -4 4 -2 17 5 15
8 21 8 17 1 -4 -7 1 -11 13 -11 19 0 26 -11 22 -33 -1 -5 3 -6 9 -2 6 3 7 12
3 18 -4 7 0 6 10 -2 9 -7 14 -17 11 -22 -3 -5 -2 -8 3 -7 4 1 22 -6 38 -15 27
-16 28 -17 5 -12 -21 5 -22 4 -8 -5 10 -6 26 -10 35 -8 10 2 17 -2 15 -9 -1
-7 4 -13 10 -13 7 0 27 -12 43 -26 17 -14 24 -22 17 -19 -11 6 -12 3 -3 -14
13 -24 23 -28 15 -6 -9 24 15 18 55 -13 20 -16 44 -32 54 -35 9 -4 17 -11 17
-16 0 -5 -8 -12 -17 -14 -10 -2 -7 -3 7 -2 15 2 41 -9 67 -28 36 -26 41 -33
30 -46 -10 -14 -10 -14 5 -3 21 17 54 7 68 -18 6 -11 16 -18 23 -16 6 1 8 1 4
-2 -10 -5 22 -42 36 -42 6 0 2 7 -9 15 -10 8 -14 15 -8 15 6 0 19 -9 30 -21
10 -11 40 -32 66 -47 26 -15 48 -31 48 -36 0 -5 -6 -3 -13 3 -10 8 -14 7 -14
-3 0 -9 8 -13 23 -10 13 2 26 0 29 -6 4 -6 10 -8 14 -6 4 3 20 -6 36 -20 15
-13 32 -24 37 -24 5 0 6 -4 3 -10 -3 -5 -1 -10 5 -10 6 0 8 -5 4 -12 -4 -7 -3
-8 5 -4 6 4 9 12 6 17 -4 5 4 5 19 -1 14 -5 25 -6 24 -2 -3 10 65 82 77 82 5
0 3 -5 -5 -11 -13 -9 -13 -10 0 -6 8 2 14 9 13 14 -1 6 16 25 39 44 23 19 58
51 79 71 35 36 69 52 53 26 -4 -6 -3 -8 4 -4 6 3 9 15 7 25 -2 12 2 18 13 17
9 0 16 5 14 12 -1 6 4 11 10 10 7 -2 11 4 10 12 -2 8 0 12 4 8 4 -4 13 0 20
10 21 26 20 955 0 975 -11 10 -12 17 -4 25 8 8 4 9 -12 5 -16 -4 -21 -3 -16 5
5 8 1 10 -10 5 -11 -4 -15 -3 -11 4 4 7 0 10 -10 8 -18 -2 -67 27 -91 55 -11
13 -12 13 -6 0 7 -13 5 -13 -9 -1 -9 7 -14 18 -10 24 4 6 0 8 -8 5 -8 -3 -23
0 -33 8 -11 7 -24 11 -30 7 -6 -3 -8 -2 -3 2 4 5 -8 16 -26 24 -35 17 -110 71
-115 84 -2 4 -8 5 -13 2 -10 -7 -59 23 -77 47 -7 10 -20 18 -28 18 -17 0 -18
11 -1 30 6 8 2 7 -9 -3 -21 -17 -23 -17 -73 16 -28 19 -47 38 -43 42 4 5 2 5
-5 2 -6 -4 -26 5 -44 20 -18 16 -29 21 -24 13 4 -8 -4 -4 -18 9 -15 14 -27 21
-27 17 0 -4 -9 -2 -20 4 -11 6 -18 16 -14 22 4 6 0 8 -12 4 -11 -3 -26 -1 -34
5 -12 9 -11 10 5 4 14 -4 17 -3 10 4 -6 6 -22 12 -35 15 -14 2 -24 9 -22 16 2
8 -3 10 -13 7 -8 -4 -15 -3 -15 2 0 5 -9 11 -21 14 -12 3 -18 10 -15 16 4 6
-2 8 -14 6 -11 -2 -19 1 -17 8 1 7 -3 11 -10 10 -6 -1 -17 4 -23 12 -7 8 -18
15 -24 15 -6 1 -24 12 -41 26 -18 16 -22 22 -9 15 16 -7 21 -7 21 3 0 9 -11
12 -31 9 -20 -2 -41 4 -58 17 -15 11 -31 20 -36 20 -5 0 -16 8 -23 18 -13 16
-13 16 6 2 18 -14 19 -14 7 2 -8 9 -19 15 -26 12 -7 -3 -25 7 -40 21 -30 27
-41 32 -31 13 4 -7 0 -5 -8 4 -8 10 -17 15 -20 11 -4 -3 -7 -1 -7 5 0 7 -4 12
-9 12 -5 0 -31 15 -57 33 l-49 32 3 420 c2 345 5 423 17 434 12 12 17 12 32 0
10 -7 15 -9 11 -5 -4 5 -2 16 5 25 11 14 10 14 -5 2 -10 -7 -18 -10 -17 -5 0
7 106 84 127 93 1 0 30 -19 65 -43z m777 -536 c0 -5 -5 -10 -11 -10 -5 0 -7 5
-4 10 3 6 8 10 11 10 2 0 4 -4 4 -10z m-715 -280 c3 -5 1 -10 -4 -10 -6 0 -11
5 -11 10 0 6 2 10 4 10 3 0 8 -4 11 -10z m650 -690 c3 -6 -1 -7 -9 -4 -18 7
-21 14 -7 14 6 0 13 -4 16 -10z m535 -1510 c0 -5 -2 -10 -4 -10 -3 0 -8 5 -11
10 -3 6 -1 10 4 10 6 0 11 -4 11 -10z m-470 -274 c0 -3 -4 -8 -10 -11 -5 -3
-10 -1 -10 4 0 6 5 11 10 11 6 0 10 -2 10 -4z"/>
<path d="M2640 4376 c0 -2 8 -10 18 -17 15 -13 16 -12 3 4 -13 16 -21 21 -21
13z"/>
<path d="M2693 4145 c0 -8 4 -12 8 -9 4 2 10 -2 12 -8 4 -8 6 -9 6 -2 1 6 -5
17 -12 23 -10 8 -14 7 -14 -4z"/>
<path d="M2966 4098 c3 -4 11 -5 19 -1 21 7 19 12 -4 10 -11 0 -18 -5 -15 -9z"/>
<path d="M2918 3983 c7 -3 16 -2 19 1 4 3 -2 6 -13 5 -11 0 -14 -3 -6 -6z"/>
<path d="M3410 3670 c-9 -6 -10 -10 -3 -10 6 0 15 5 18 10 8 12 4 12 -15 0z"/>
<path d="M2583 3633 c4 -6 2 -13 -5 -15 -8 -3 -6 -6 4 -10 17 -7 19 15 3 29
-4 4 -5 3 -2 -4z"/>
<path d="M2645 3550 c-3 -5 -1 -10 4 -10 6 0 11 5 11 10 0 6 -2 10 -4 10 -3 0
-8 -4 -11 -10z"/>
<path d="M2860 3460 c0 -5 5 -10 11 -10 5 0 7 5 4 10 -3 6 -8 10 -11 10 -2 0
-4 -4 -4 -10z"/>
<path d="M2695 3340 c-3 -6 1 -7 9 -4 18 7 21 14 7 14 -6 0 -13 -4 -16 -10z"/>
<path d="M3076 3305 c-11 -8 -15 -15 -9 -15 6 0 16 7 23 15 16 19 11 19 -14 0z"/>
<path d="M2945 3189 c-4 -6 -13 -8 -19 -6 -7 3 -13 -1 -13 -8 0 -10 5 -11 18
-5 12 7 19 6 22 -3 3 -6 4 -2 4 11 -1 25 -3 26 -12 11z"/>
<path d="M3920 2781 c0 -6 4 -13 10 -16 6 -3 7 1 4 9 -7 18 -14 21 -14 7z"/>
<path d="M2480 1956 c0 -2 8 -10 18 -17 15 -13 16 -12 3 4 -13 16 -21 21 -21
13z"/>
<path d="M1010 1916 c0 -2 7 -7 16 -10 8 -3 12 -2 9 4 -6 10 -25 14 -25 6z"/>
<path d="M2374 1819 c-4 -7 -3 -9 4 -5 5 3 13 0 15 -6 4 -9 6 -10 6 -1 1 17
-16 25 -25 12z"/>
<path d="M2490 1750 c-13 -8 -12 -10 3 -10 9 0 17 5 17 10 0 12 -1 12 -20 0z"/>
<path d="M2601 1671 c-10 -7 -7 -9 12 -8 14 1 23 5 20 10 -6 9 -15 9 -32 -2z"/>
<path d="M2900 1630 c0 -5 5 -10 11 -10 5 0 7 5 4 10 -3 6 -8 10 -11 10 -2 0
-4 -4 -4 -10z"/>
<path d="M3790 1540 c-9 -6 -10 -10 -3 -10 6 0 15 5 18 10 8 12 4 12 -15 0z"/>
<path d="M2850 1516 c0 -2 8 -10 18 -17 15 -13 16 -12 3 4 -13 16 -21 21 -21
13z"/>
<path d="M3940 1516 c0 -2 7 -7 16 -10 8 -3 12 -2 9 4 -6 10 -25 14 -25 6z"/>
<path d="M3126 1458 c3 -4 11 -5 19 -1 21 7 19 12 -4 10 -11 0 -18 -5 -15 -9z"/>
<path d="M3698 1453 c7 -3 16 -2 19 1 4 3 -2 6 -13 5 -11 0 -14 -3 -6 -6z"/>
<path d="M2958 1433 c7 -3 16 -2 19 1 4 3 -2 6 -13 5 -11 0 -14 -3 -6 -6z"/>
<path d="M3849 1413 c-13 -16 -12 -17 4 -4 16 13 21 21 13 21 -2 0 -10 -8 -17
-17z"/>
<path d="M3370 1340 c6 -11 13 -20 16 -20 2 0 0 9 -6 20 -6 11 -13 20 -16 20
-2 0 0 -9 6 -20z"/>
<path d="M2296 4422 c-3 -5 1 -9 9 -9 8 0 12 4 9 9 -3 4 -7 8 -9 8 -2 0 -6 -4
-9 -8z"/>
<path d="M3820 3471 l0 -290 100 -60 c56 -34 103 -61 105 -61 3 0 5 101 5 225
l0 225 293 0 294 0 65 98 c35 53 73 109 82 125 l18 27 -481 0 -481 0 0 -289z
m930 270 c0 -11 -52 -66 -63 -67 -7 -1 -16 -2 -20 -3 -4 0 -3 -11 4 -22 8 -17
8 -20 -1 -14 -8 5 -11 3 -8 -6 8 -22 -11 -51 -29 -45 -13 5 -14 4 -4 -8 8 -9
8 -16 2 -20 -5 -4 -12 -2 -16 3 -3 6 -13 7 -23 4 -14 -5 -15 -3 -4 8 15 16 16
32 1 27 -6 -2 -11 -8 -11 -13 0 -6 -5 -16 -11 -24 -10 -12 -9 -13 2 -6 10 5
12 4 7 -3 -5 -9 -83 -12 -272 -12 -238 0 -266 -2 -281 -17 -16 -16 -18 -39
-16 -218 3 -192 2 -201 -16 -201 -11 0 -19 5 -18 11 1 5 -6 9 -15 7 -10 -1
-23 6 -30 18 -7 11 -18 20 -24 20 -6 0 -23 9 -37 20 l-26 20 2 268 1 267 440
5 c243 3 447 5 454 6 6 0 12 -2 12 -5z m-55 -89 c-3 -3 -11 0 -18 7 -9 10 -8
11 6 5 10 -3 15 -9 12 -12z m-85 -105 c0 -8 -7 -14 -15 -14 -11 0 -12 4 -4 14
6 7 13 13 15 13 2 0 4 -6 4 -13z"/>
<path d="M3885 3191 c-3 -5 0 -13 6 -17 8 -5 9 -3 4 6 -6 10 -4 12 9 7 10 -4
15 -3 11 3 -8 13 -22 13 -30 1z"/>
<path d="M3751 3014 c0 -11 3 -14 6 -6 3 7 2 16 -1 19 -3 4 -6 -2 -5 -13z"/>
<path d="M1978 2713 l3 -228 -301 2 -301 2 -53 -82 c-29 -45 -64 -100 -78
-122 l-25 -40 476 3 476 2 -3 289 -3 289 -95 56 c-52 31 -96 56 -97 56 -1 0
-1 -102 1 -227z m52 171 c0 4 7 0 16 -8 8 -9 21 -16 28 -16 8 0 20 -8 27 -17
13 -17 13 -17 -6 -3 -19 14 -19 14 -6 -3 13 -16 13 -20 0 -28 -8 -5 -9 -9 -3
-9 6 0 17 7 24 15 14 17 35 21 25 5 -3 -5 -2 -10 3 -10 6 0 10 -100 11 -260
l1 -260 -341 0 c-224 0 -338 -3 -334 -10 4 -6 -31 -10 -99 -10 l-106 0 18 34
c9 19 20 32 24 29 24 -14 44 -10 44 9 0 17 -2 17 -12 4 -6 -9 -14 -13 -17 -10
-8 9 14 54 24 48 5 -3 6 2 3 10 -4 9 0 18 9 22 9 3 13 12 11 19 -3 7 0 16 7
21 8 5 10 3 4 -7 -6 -11 -5 -12 5 -2 11 10 16 9 27 -5 12 -16 13 -16 7 0 -5
16 16 17 273 18 248 0 279 2 291 17 9 12 12 73 12 221 0 181 2 203 15 192 8
-7 15 -9 15 -6z"/>
<path d="M3016 2147 c3 -10 9 -15 12 -12 3 3 0 11 -7 18 -10 9 -11 8 -5 -6z"/>
<path d="M3185 2031 c-3 -5 -2 -12 3 -15 5 -3 9 1 9 9 0 17 -3 19 -12 6z"/>
</g>
</svg>
